# xmcd
#
# Track frame offsets:
#	183
#	16013
#	31873
#	51988
#	73173
#	93513
#	113465
#	133580
#	150225
#	172010
#	189148
#	208733
#	225845
#	244203
#	262350
#	280548
#	304820
#	318480
#
# Disc length: 4475 seconds
#
# Revision: 5
# Processed by: cddbd v1.5.2PL0 Copyright (c) Steve Scherf et al.
# Submitted via: audiograbber 1.83.01
#
DISCID=ec117912
DTITLE=72 Soul Classics - 72 Soul Classics - CD 4
DYEAR=1983
DGENRE=Soul
TTITLE0=Four Tops - Loco in Acapulco
TTITLE1=Terence Trent D'Arby - Wishing Well
TTITLE2=Pointer Sisters - Jump (For My Love)
TTITLE3=Aretha Franklin - Who's Zooming Who
TTITLE4=Billy Ocean - Get Outta My Dreams, Get Into My Car
TTITLE5=Earth, Wind and Fire - Star
TTITLE6=Five Star - Can't Wait Another Minute
TTITLE7=The Emotions - Best of My Love
TTITLE8=Heatwave - Always and Forever
TTITLE9=Jonathan Butler - Lies
TTITLE10=Isley Jasper Isley - Caravan of Love
TTITLE11=Sade - Why (Can't We Live Together)
TTITLE12=Glen Goldsmith - I Won't Cry
TTITLE13=Ruby Turner - I'd Rather Go Blind
TTITLE14=Jeffrey Osborne - On the Wings of Love
TTITLE15=Jermain Jackson - Sweetest Sweetest
TTITLE16=The Manhattans - Hurt
TTITLE17=Luther Vandross - Never Too Much
EXTD=
EXTT0=
EXTT1=
EXTT2=
EXTT3=
EXTT4=
EXTT5=
EXTT6=
EXTT7=
EXTT8=
EXTT9=
EXTT10=
EXTT11=
EXTT12=
EXTT13=
EXTT14=
EXTT15=
EXTT16=
EXTT17=
PLAYORDER=
